<?xml version="1.0" encoding="UTF-8"?>
<svg width="2481" height="2073" xmlns="http://www.w3.org/2000/svg" xmlns:svg="http://www.w3.org/2000/svg">
 <title>map pin red</title>
 <g>
  <title>Layer 1</title>
  <path id="svg_2" clip-rule="evenodd" fill="#ff0000" fill-rule="evenodd" stroke="#000000" stroke-miterlimit="10" stroke-width="37" d="m1077.93994,1959.63c-38.7699,-190.30004 -107.11597,-348.67004 -189.90295,-495.44006c-61.40698,-108.86999 -132.54401,-209.35998 -198.36402,-314.93994c-21.97198,-35.23999 -40.93396,-72.47998 -62.04699,-109.05005c-42.21601,-73.13995 -76.44397,-157.93793 -74.26899,-267.93494c2.125,-107.47302 33.20801,-193.68402 78.03003,-264.17202c73.719,-115.935 197.20099,-210.98899 362.88398,-235.969c135.46899,-20.42399 262.479,14.082 352.53906,66.74802c73.59997,43.03799 130.59997,100.52698 173.91992,168.28c45.21997,70.71597 76.35999,154.25998 78.96997,263.23196c1.34009,55.83002 -7.79993,107.53204 -20.67993,150.41803c-13.03003,43.409 -33.98999,79.698 -52.64002,118.45801c-36.41003,75.66003 -82.05004,144.97998 -127.85998,214.33997c-136.44006,206.60998 -264.5,417.31005 -320.58008,706.03002z"/>
  <circle id="svg_4" clip-rule="evenodd" fill="black" fill-rule="evenodd" cx="1080.55" cy="740.047" r="183.332"/>
 </g>
</svg>