<?xml version="1.0" encoding="utf-8"?>
<!-- Generator: Adobe Illustrator 16.0.0, SVG Export Plug-In . SVG Version: 6.00 Build 0)  -->
<!DOCTYPE svg PUBLIC "-//W3C//DTD SVG 1.1//EN" "http://www.w3.org/Graphics/SVG/1.1/DTD/svg11.dtd">
<svg version="1.1" id="Layer_1" xmlns="http://www.w3.org/2000/svg" xmlns:xlink="http://www.w3.org/1999/xlink" x="0px" y="0px"
	 width="612px" height="792px" viewBox="0 0 612 792" enable-background="new 0 0 612 792" xml:space="preserve">
<title>Exhibition</title>
<rect x="59.741" y="529.875" width="34.664" height="137.461"/>
<path d="M94.405,488.192c0-9.572-7.76-17.333-17.332-17.333s-17.332,7.761-17.332,17.333v24.948h34.664V488.192z"/>
<rect x="505.593" y="529.875" width="34.664" height="137.461"/>
<path d="M522.925,470.563c-9.607,0.035-17.368,7.852-17.334,17.459c0.001,0.057,0.001,0.114,0.002,0.171v24.948h34.664v-24.948
	c0.129-9.607-7.555-17.5-17.162-17.628C523.038,470.563,522.981,470.563,522.925,470.563z"/>
<path d="M488.858,520.313c0,23.906-18.911,47.019-53.249,64.811c-36.081,18.695-84.243,28.974-135.61,28.974
	s-99.529-10.279-135.613-28.979c-34.338-17.791-53.247-40.898-53.247-64.805H94.405c0,31.078,22.113,58.853,62.284,79.663
	c38.42,19.905,89.315,30.845,143.318,30.845c54.003,0,104.884-10.938,143.31-30.845c40.162-20.811,62.275-48.585,62.275-79.663
	H488.858z"/>
<path d="M112.335,328.613l84.963-56.154c19.258-13.121,44.854-12.007,62.899,2.737l60.339,50.366
	c11.304,9.348,27.198,10.763,39.976,3.56l127.151-69.308v-99.291H112.335V328.613z M337.678,179.922c24.813,0,45,19.464,45,43.39
	s-20.187,43.39-45,43.39s-45-19.463-45-43.39S312.864,179.922,337.678,179.922z"/>
<path d="M337.678,249.964c15.586,0,28.266-11.953,28.266-26.655c0-14.703-12.68-26.656-28.266-26.656s-28.266,11.953-28.266,26.656
	C309.412,238.011,322.092,249.964,337.678,249.964z"/>
<path d="M309.859,338.448l-60.34-50.367c-12.292-10.018-29.713-10.748-42.8-1.793l-0.133,0.09l-94.251,62.294v30.594h375.328
	V278.873l-119.07,64.905C349.8,354.332,326.446,352.212,309.859,338.448z"/>
<path d="M523.522,124.664H76.476v290.461h447.047V124.664z M504.397,387.633c0,4.621-3.746,8.367-8.367,8.367H103.968
	c-4.621,0-8.367-3.746-8.367-8.367V152.156c0-4.621,3.746-8.367,8.367-8.367H496.03c4.621,0,8.367,3.746,8.367,8.367V387.633z"/>
</svg>
