<?xml version="1.0" encoding="utf-8"?>
<!-- Generator: Adobe Illustrator 16.0.0, SVG Export Plug-In . SVG Version: 6.00 Build 0)  -->
<!DOCTYPE svg PUBLIC "-//W3C//DTD SVG 1.1//EN" "http://www.w3.org/Graphics/SVG/1.1/DTD/svg11.dtd">
<svg version="1.1" id="Layer_1" xmlns="http://www.w3.org/2000/svg" xmlns:xlink="http://www.w3.org/1999/xlink" x="0px" y="0px"
	 width="612px" height="792px" viewBox="0 0 612 792" enable-background="new 0 0 612 792" xml:space="preserve">
<g>
	<path d="M306,37.164c-124.7,0-225.788,101.088-225.788,225.788c0,35.804,8.333,69.654,23.165,99.733l2.226,4.649l200.357,387.503
		l198.659-384.228l1.117-2.28c16.633-31.459,26.052-67.326,26.052-105.387C531.788,138.251,430.699,37.164,306,37.164z
		 M290.969,199.11v6.506v19.529c0,13.022-13.021,13.022-13.021,26.043v117.18c0,6.507-6.515,13.022-13.021,13.022h-13.022
		c-6.506,0-13.021-6.515-13.021-13.022v-117.18c0-13.021-13.021-13.021-13.021-26.043v-19.529v-45.572
		c0-6.507,6.506-13.022,13.021-13.022c3.253,0,3.253,3.971,3.253,6.507v52.079c0,2.543,0,6.507,3.261,6.507
		c3.253,0,3.253-3.971,3.253-6.507V153.53c0-2.544,0-6.507,3.253-6.507h9.769h3.254c3.254,0,3.254,3.971,3.254,6.507v52.079
		c0,2.543,0,6.507,3.253,6.507c3.262,0,3.262-3.971,3.262-6.507V153.53c0-2.544,0-6.507,3.253-6.507
		c6.507,0,13.021,6.507,13.021,13.022V199.11L290.969,199.11z M386.133,368.369c0,6.507-6.508,13.022-13.022,13.022h-13.021
		c-6.516,0-13.022-6.515-13.022-13.022v-78.114c-6.505,0-13.02-6.515-13.02-13.021v-52.08c0-13.022,0-45.573,6.515-58.585
		c8.228-16.467,32.543-19.529,45.564-19.529h0.008L386.133,368.369L386.133,368.369z"/>
</g>
</svg>
