<?xml version="1.0" encoding="utf-8"?>
<!-- Generator: Adobe Illustrator 16.0.0, SVG Export Plug-In . SVG Version: 6.00 Build 0)  -->
<!DOCTYPE svg PUBLIC "-//W3C//DTD SVG 1.1//EN" "http://www.w3.org/Graphics/SVG/1.1/DTD/svg11.dtd">
<svg version="1.1" id="Layer_1" xmlns="http://www.w3.org/2000/svg" xmlns:xlink="http://www.w3.org/1999/xlink" x="0px" y="0px"
	 width="612px" height="792px" viewBox="0 0 612 792" enable-background="new 0 0 612 792" xml:space="preserve">
<g>
	<path fill="#ff0000" d="M306.133,100.5c163.146,0,295.367,132.222,295.367,295.633c0,111.429-61.846,208.729-153.015,259.112l-0.533-11.195v-0.8
		c-0.534-13.596-0.8-26.657-1.066-38.654c-1.065-38.12-2.398-79.972-0.799-118.093c0.799-17.861,9.863-22.926,23.992-35.188
		c13.86-11.995,18.66-18.661,21.06-37.588c2.666-19.46,0.267-35.455-1.6-54.381c-1.599-18.127-2.932-36.521-4.53-54.381
		c-2.934-35.455-7.465-73.842-8.798-109.297h-8.53c0.534,58.381-0.533,117.028,0,175.408c0,8.796,0.8,17.594-8.53,17.594
		c-9.33,0.267-8.53-7.998-8.53-16.528c0.266-58.113-1.065-118.625,0-176.207l-9.331-0.533v179.14
		c0.268,11.196-0.532,14.927-12.795,13.861c-5.864-8.264-4.266-7.463-4.266-19.727V195.667l-9.063-0.266v154.881
		c0,11.729,5.065,46.117-12.796,37.321c-5.864-2.933-3.999-11.463-3.999-19.994V195.401l-9.329,0.266
		c-1.868,37.055-18.661,187.937-15.196,216.994c0.801,7.998,2.666,15.995,6.133,22.393c3.199,5.864,24.259,24.791,29.857,29.056
		c14.394,10.93,9.597,57.847,9.597,79.173c-0.267,29.323-0.8,65.846-2.134,105.032l-0.8,21.859
		c-34.121,13.861-71.44,21.326-110.362,21.326c-25.59,0-50.649-3.2-74.107-9.331l-1.066-18.393v-0.8
		c-2.132-48.251-2.666-92.235-2.933-122.093c0-21.592-0.533-44.252,0.267-65.845c1.066-29.59,41.32-22.126,66.111-65.578
		c9.063-15.994,13.328-32.522,12.528-53.315c-1.333-38.387-19.459-94.368-40.786-123.425c-7.73-10.396-22.125-27.724-33.588-33.322
		c-8.53-3.999-18.393-5.065-27.99-2.933c-19.46,4.266-28.523,15.995-37.854,28.79c-8.797,12.529-17.061,25.591-24.259,41.585
		c-20.526,46.117-37.854,109.83-2.132,154.082c11.729,14.395,19.728,18.394,37.854,27.99c6.93,3.731,14.927,9.33,18.127,14.128
		c5.598,8.264,3.465,19.726,3.732,30.656c1.066,41.853,0,100.767-2.398,159.146l-0.267,2.133v2.932l-0.533,11.996l0,0v0.8
		C87.541,627.256,10.5,520.624,10.5,396.133C10.5,232.722,142.722,100.5,306.133,100.5z"/>
</g>
</svg>
