<?xml version="1.0" encoding="utf-8"?>
<!-- Generator: Adobe Illustrator 16.0.0, SVG Export Plug-In . SVG Version: 6.00 Build 0)  -->
<!DOCTYPE svg PUBLIC "-//W3C//DTD SVG 1.1//EN" "http://www.w3.org/Graphics/SVG/1.1/DTD/svg11.dtd">
<svg version="1.1"
	 id="Layer_1" xmlns:dc="http://purl.org/dc/elements/1.1/" xmlns:cc="http://creativecommons.org/ns#" xmlns:rdf="http://www.w3.org/1999/02/22-rdf-syntax-ns#" xmlns:svg="http://www.w3.org/2000/svg" xmlns:sodipodi="http://sodipodi.sourceforge.net/DTD/sodipodi-0.dtd" xmlns:inkscape="http://www.inkscape.org/namespaces/inkscape"
	 xmlns="http://www.w3.org/2000/svg" xmlns:xlink="http://www.w3.org/1999/xlink" x="0px" y="0px" width="612px" height="792px"
	 viewBox="0 0 612 792" enable-background="new 0 0 612 792" xml:space="preserve">
<g>
	<path d="M140.757,102.941c-45.471,0.009-82.72,37.257-82.729,82.729c0.009,10.763,3.774,20.867,7.833,30.773
		c-13.895,17.638-25.874,37.448-25.89,60.177c0.023,18.132,7.956,34.696,17.143,50.164c-21.432,22.588-38.766,49.721-38.783,81.254
		c0.002,61.316,45.554,112.209,104.509,120.949v113.538H36.249c-0.574-0.027-1.148-0.027-1.722,0
		c-9.922,0.698-17.401,9.307-16.703,19.23c0.676,9.609,8.794,16.986,18.425,16.741h178.983H539.86h35.972
		c9.934,0.22,18.165-7.654,18.385-17.588c0.219-9.934-7.653-18.164-17.587-18.384c-0.267-0.007-0.533-0.007-0.798,0h-26.874
		l-29.017-38.783h13.139c9.934,0.22,18.165-7.654,18.385-17.588c0.219-9.934-7.655-18.164-17.589-18.384
		c-0.265-0.007-0.531-0.007-0.796,0h-40.083l-25.047-33.443h20.13c9.942,0,18.003-8.061,18.003-18.003
		c0-9.944-8.061-18.005-18.003-18.005H267.433c-0.62-0.031-1.242-0.031-1.862,0c-9.943,0.515-17.587,8.992-17.072,18.935
		c0.514,9.944,8.991,17.588,18.934,17.073l0,0h20.094l-25.012,33.443h-40.118c-0.62-0.032-1.242-0.032-1.862,0
		c-9.922,0.731-17.372,9.368-16.641,19.29c0.709,9.617,8.865,16.97,18.502,16.682h13.174l-29.017,38.783h-47.741V528.987
		c58.905-8.799,104.472-59.681,104.474-120.949c-0.025-31.542-17.439-58.67-38.888-81.254c9.199-15.465,17.108-32.028,17.143-50.164
		c-0.037-22.711-12-42.416-25.891-60.036c4.08-9.943,7.836-20.109,7.834-30.914C223.477,140.199,186.229,102.951,140.757,102.941
		L140.757,102.941z M332.353,534.327h90.668l25.047,33.443H307.341L332.353,534.327z M280.466,603.742h194.51l29.051,38.783H251.484
		L280.466,603.742z"/>
</g>
<text transform="matrix(1 0 0 1 0 1709.75)" font-family="'HelveticaNowText-Bold'" font-size="361.4173">Created by Larea</text>
<text transform="matrix(1 0 0 1 0 2071.1875)" font-family="'HelveticaNowText-Bold'" font-size="361.4173">from the Noun Project</text>
</svg>
